HIERARCHY
ROOT Hips
{
	OFFSET 0.00000 0.00000 0.00000
	CHANNELS 6 Xposition Yposition Zposition Zrotation Yrotation Xrotation 
	JOINT LHipJoint
	{
		OFFSET 0 0 0
		CHANNELS 3 Zrotation Yrotation Xrotation
		JOINT LeftUpLeg
		{
			OFFSET 1.62067 -1.77917 0.70989
			CHANNELS 3 Zrotation Yrotation Xrotation
			JOINT LeftLeg
			{
				OFFSET 2.34532 -6.44371 0.00000
				CHANNELS 3 Zrotation Yrotation Xrotation
				JOINT LeftFoot
				{
					OFFSET 2.74224 -7.53425 0.00000
					CHANNELS 3 Zrotation Yrotation Xrotation
					JOINT LeftToeBase
					{
						OFFSET 0.17032 -0.46794 2.08086
						CHANNELS 3 Zrotation Yrotation Xrotation
						End Site
						{
							OFFSET 0.00000 -0.00000 1.07476
						}
					}
				}
			}
		}
	}
	JOINT RHipJoint
	{
		OFFSET 0 0 0
		CHANNELS 3 Zrotation Yrotation Xrotation
		JOINT RightUpLeg
		{
			OFFSET -1.55811 -1.77917 0.70989
			CHANNELS 3 Zrotation Yrotation Xrotation
			JOINT RightLeg
			{
				OFFSET -2.33243 -6.40830 0.00000
				CHANNELS 3 Zrotation Yrotation Xrotation
				JOINT RightFoot
				{
					OFFSET -2.78798 -7.65993 0.00000
					CHANNELS 3 Zrotation Yrotation Xrotation
					JOINT RightToeBase
					{
						OFFSET -0.22707 -0.62388 2.04059
						CHANNELS 3 Zrotation Yrotation Xrotation
						End Site
						{
							OFFSET -0.00000 -0.00000 1.07030
						}
					}
				}
			}
		}
	}
	JOINT LowerBack
	{
		OFFSET 0 0 0
		CHANNELS 3 Zrotation Yrotation Xrotation
		JOINT Spine
		{
			OFFSET 0.02203 1.91565 0.07161
			CHANNELS 3 Zrotation Yrotation Xrotation
			JOINT Spine1
			{
				OFFSET 0.01740 1.90525 0.11636
				CHANNELS 3 Zrotation Yrotation Xrotation
				JOINT Neck
				{
					OFFSET 0 0 0
					CHANNELS 3 Zrotation Yrotation Xrotation
					JOINT Neck1
					{
						OFFSET -0.10841 1.83566 0.05067
						CHANNELS 3 Zrotation Yrotation Xrotation
						JOINT Head
						{
							OFFSET 0.06601 1.74760 -0.50505
							CHANNELS 3 Zrotation Yrotation Xrotation
							End Site
							{
								OFFSET 0.03102 1.85215 -0.17697
							}
						}
					}
				}
				JOINT LeftShoulder
				{
					OFFSET 0 0 0
					CHANNELS 3 Zrotation Yrotation Xrotation
					JOINT LeftArm
					{
						OFFSET 2.87059 1.35470 0.16111
						CHANNELS 3 Zrotation Yrotation Xrotation
						JOINT LeftForeArm
						{
							OFFSET 5.43592 -0.00000 0.00000
							CHANNELS 3 Zrotation Yrotation Xrotation
							JOINT LeftHand
							{
								OFFSET 3.25460 -0.00000 0.00000
								CHANNELS 3 Zrotation Yrotation Xrotation
								JOINT LeftFingerBase
								{
									OFFSET 0 0 0
									CHANNELS 3 Zrotation Yrotation Xrotation
									JOINT LeftHandIndex1
									{
										OFFSET 0.49824 -0.00000 0.00000
										CHANNELS 3 Zrotation Yrotation Xrotation
										End Site
										{
											OFFSET 0.40170 -0.00000 0.00000
										}
									}
								}
								JOINT LThumb
								{
									OFFSET 0 0 0
									CHANNELS 3 Zrotation Yrotation Xrotation
									End Site
									{
										OFFSET 0.40783 -0.00000 0.40783
									}
								}
							}
						}
					}
				}
				JOINT RightShoulder
				{
					OFFSET 0 0 0
					CHANNELS 3 Zrotation Yrotation Xrotation
					JOINT RightArm
					{
						OFFSET -2.86643 1.23488 0.45957
						CHANNELS 3 Zrotation Yrotation Xrotation
						JOINT RightForeArm
						{
							OFFSET -5.33830 -0.00000 0.00000
							CHANNELS 3 Zrotation Yrotation Xrotation
							JOINT RightHand
							{
								OFFSET -3.23148 -0.00000 0.00000
								CHANNELS 3 Zrotation Yrotation Xrotation
								JOINT RightFingerBase
								{
									OFFSET 0 0 0
									CHANNELS 3 Zrotation Yrotation Xrotation
									JOINT RightHandIndex1
									{
										OFFSET -0.46364 -0.00000 0.00000
										CHANNELS 3 Zrotation Yrotation Xrotation
										End Site
										{
											OFFSET -0.37380 -0.00000 0.00000
										}
									}
								}
								JOINT RThumb
								{
									OFFSET 0 0 0
									CHANNELS 3 Zrotation Yrotation Xrotation
									End Site
									{
										OFFSET -0.37951 -0.00000 0.37951
									}
								}
							}
						}
					}
				}
			}
		}
	}
}
MOTION
Frames: 7
Frame Time: 0.0408163
0.00 0.00 0.00 0 0 0 0 0 0 -21 0 0 0 0 0 0 0 0 0 0 0 0 0 0 21 0 0 0 0 0 0 0 0 0 0 0 0 0 0 0 0 0 0 0 0 0 0 -16 0 0 21 0 0 11 0 0 0 -8 0 0 0 0 0 0 0 0 0 0 0 0 0 0 0 0 0 0 0 0 8 0 0 0 0 0 0 0 0 0 0 0 0 0 0 0 0 0
0.00 0.00 0.00 4.3182 7.4708 54.3573 0.0000 0.0000 0.0000 -25.4081 -10.8296 -28.2396 3.2001 11.0121 32.3206 2.1028 1.7506 -28.0906 1.2520 -7.0939 -19.9938 0.0000 0.0000 0.0000 -1.6022 23.0935 -109.0448 -12.5173 -18.6009 67.6195 -0.2778 -12.3683 -20.8020 -1.2384 -7.0566 19.8831 3.8455 4.7167 15.9851 9.3060 7.5071 2.8321 6.2181 3.6549 -6.7098 -2.2461 -9.7182 -9.2479 6.0555 -12.9838 0.4679 1.6427 -6.3564 2.3278 0.0000 0.0000 0.0000 -4.1797 -74.7572 6.5844 16.3523 -25.9960 -3.7991 -0.0000 -0.0000 5.4647 57.8450 -38.2327 -44.5508 -7.1250 0.0000 -0.0000 11.3456 -25.1169 -15.2971 0.0000 0.0000 0.0000 33.7714 52.0253 0.6469 -14.3041 23.1678 -2.9467 0.0000 0.0000 13.1950 -57.7578 -54.4913 52.2291 7.1250 -0.0000 -0.0000 178.0229 -9.1498 -1.6386
0.00 0.00 0.00 4.2249 6.3587 60.9997 0.0000 0.0000 0.0000 -23.9780 -14.2397 -33.2212 3.2589 11.1028 32.6272 1.0475 5.2107 -21.8808 1.7619 -8.3515 -23.7868 0.0000 0.0000 0.0000 -5.2585 23.7203 -114.3713 -12.5504 -18.6138 67.7232 -0.3145 -13.1323 -22.0739 -0.8812 -5.9844 16.7393 3.2513 7.5969 15.9857 10.1777 11.5525 1.1953 6.4662 5.6414 -9.1958 1.4355 -11.3750 -8.7442 2.4784 -15.4504 -1.9964 0.0171 -7.7604 0.8847 -0.0000 0.0000 0.0000 41.9338 -83.4097 -38.8180 15.7408 -25.1679 -3.5350 -0.0000 -0.0000 7.9143 57.4971 -38.2729 -44.1914 -7.1250 0.0000 -0.0000 11.1622 -24.9287 -15.0262 -0.0000 0.0000 0.0000 24.7974 46.0511 -6.4062 -15.7841 25.2271 -3.5535 0.0000 0.0000 12.1521 -59.9864 -56.3036 55.2270 7.1250 -0.0000 -0.0000 178.5041 -11.5384 -1.1669
0.00 0.00 0.00 4.4667 5.5609 66.1440 0.0000 0.0000 0.0000 -22.9677 -16.5486 -37.4950 3.3461 11.2353 33.0777 0.7495 4.9489 -18.8865 1.5360 -7.8241 -22.1810 0.0000 0.0000 0.0000 -8.5117 23.4595 -118.4809 -12.5219 -18.6027 67.6337 -0.3763 -13.4828 -23.0676 -0.7575 -5.5584 15.5084 2.7349 9.6128 14.7450 10.5432 14.3060 0.1695 6.5186 7.0158 -10.1974 3.9655 -12.6035 -7.7231 0.4061 -17.3395 -4.7743 -0.7446 -8.8426 -0.5500 -0.0000 0.0000 0.0000 100.1832 -79.9960 -94.3984 15.4076 -24.7109 -3.3945 -0.0000 -0.0000 6.0626 57.7243 -39.6363 -45.2858 -7.1250 0.0000 -0.0000 10.6793 -26.4418 -14.4865 -0.0000 0.0000 0.0000 18.4552 41.8254 -11.2084 -16.3754 26.0270 -3.8092 0.0000 0.0000 11.8457 -60.3058 -55.5882 55.3469 7.1250 -0.0000 -0.0000 178.0257 -11.2444 -1.5524
0.00 0.00 0.00 4.4511 5.7637 68.5550 0.0000 0.0000 0.0000 -21.9318 -17.5075 -39.4226 3.4053 11.3239 33.3803 0.5297 5.6636 -16.9813 1.2989 -7.2205 -20.3704 0.0000 0.0000 0.0000 -9.3063 23.1831 -120.1160 -12.4901 -18.5902 67.5342 -0.3891 -13.6833 -23.4163 -0.6666 -5.2213 14.5409 3.2860 10.6136 14.2610 10.8846 15.8387 -0.2428 6.2422 7.7310 -10.5485 5.3384 -13.2082 -8.1669 -1.2132 -18.3960 -5.6195 -1.3935 -9.4354 -1.0621 -0.0000 0.0000 0.0000 115.3406 -76.6897 -110.8232 14.7592 -23.8097 -3.1281 -0.0000 -0.0000 8.0490 58.6762 -40.3059 -46.7469 -7.1250 0.0000 -0.0000 10.8221 -27.7208 -14.7852 -0.0000 0.0000 0.0000 15.3167 39.0964 -13.3872 -16.8300 26.6332 -4.0109 0.0000 0.0000 11.7729 -60.2816 -56.0830 55.4776 7.1250 -0.0000 -0.0000 178.3128 -11.5508 -1.3158
0.00 0.00 0.00 5.1010 4.0587 74.3716 0.0000 0.0000 0.0000 -22.1566 -19.2301 -43.6402 3.4522 11.3933 33.6181 0.5073 4.6243 -15.9438 1.1676 -6.8593 -19.2993 0.0000 0.0000 0.0000 -13.6232 22.1082 -124.6365 -12.4541 -18.5761 67.4211 -0.4893 -13.9222 -24.5684 -0.5988 -4.9537 13.7765 1.4844 12.8623 11.5829 11.0199 18.6982 -1.0851 6.9379 9.2836 -10.9895 7.9758 -14.2152 -8.5658 -4.1856 -20.3380 -7.4690 -2.5530 -10.5349 -2.3320 -0.0000 -0.0000 0.0000 147.9653 -68.6676 -163.9950 11.5321 -19.0993 -1.9465 -0.0000 -0.0000 30.6294 62.7167 -36.2356 -48.8937 -7.1250 0.0000 -0.0000 14.5649 -26.5553 -19.9736 -0.0000 -0.0000 0.0000 9.7664 33.8003 -18.6725 -17.4683 27.4710 -4.3012 0.0000 0.0000 13.0726 -61.1944 -54.7918 56.0595 7.1250 -0.0000 -0.0000 177.3689 -11.2170 -2.0712
0.00 0.00 0.00 6.0446 1.9296 82.2170 0.0000 0.0000 0.0000 -23.9094 -19.7756 -46.5549 3.2808 11.1364 32.7412 0.2559 5.4995 -13.1543 3.1622 -10.9531 -32.1218 0.0000 0.0000 0.0000 -18.3941 19.6284 -130.5626 -12.5598 -18.6174 67.7527 -0.6533 -14.1349 -26.1452 -0.4969 -4.5192 12.5420 -0.6079 14.9559 8.0900 11.4611 21.6781 -2.4035 8.2190 11.0211 -12.0308 11.1031 -15.0130 -8.0376 -8.9368 -22.3745 -9.2234 -3.7603 -11.6055 -3.7419 -0.0000 -0.0000 0.0000 155.9246 -55.3856 156.7560 8.9071 -15.0123 -1.1759 -0.0000 -0.0000 64.0359 70.7619 -38.4948 -60.7221 -7.1250 0.0000 -0.0000 17.5370 -35.4012 -25.0511 -0.0000 -0.0000 0.0000 2.2482 28.1394 -22.3027 -18.3607 28.6165 -4.7207 0.0000 0.0000 13.6249 -64.0627 -56.0959 59.6290 7.1250 -0.0000 -0.0000 177.5118 -13.6099 -1.8346
